# xmcd
#
# Track frame offsets:
#	150
#	22030
#	45940
#	68512
#	78640
#	91897
#	105762
#	122222
#	129165
#	141080
#	156287
#	176125
#	195642
#	200592
#	221710
#
# Disc length: 3297 seconds
#
# Revision: 4
# Processed by: cddbd v1.5.2PL0 Copyright (c) Steve Scherf et al.
# Submitted via: audiograbber 1.83.01
#
DISCID=ca0cdf0f
DTITLE=Various Artist - Barrachash - Celtic Jewels
DYEAR=1999
DGENRE=Celtic
TTITLE0=Laura Powers - 1. Circle of Stone
TTITLE1=Moira Kerr - 2. Macain of Glencoe
TTITLE2=Gabrielle Angelique - 3. Ancient Souls
TTITLE3=4. Jennifer White - Oisin - 4. The Fianna
TTITLE4=Anne Martin - 5. Oran Leannan Sithe
TTITLE5=Elyra - 6. The Heather she grows
TTITLE6=Mae McKenna - 7. On Heavens Shore
TTITLE7=Jennifer White - 8. Brighd´s Dance
TTITLE8=Elyra - 9. Island Spinning Song
TTITLE9=Darby Devon Simmerman - 10. Oghma´ s Return
TTITLE10=Sharon Murphy - 11. Homes of Donegal
TTITLE11=Jennifer Parsignault - 12. Prayer for St.Symin
TTITLE12=Jennifer White - Oisin - 13. The white Horses
TTITLE13=Sheila Ryan - 14. Veil of Silence
TTITLE14=Darby Devon Simmerman - 15. Highlands
EXTD=
EXTT0=
EXTT1=
EXTT2=
EXTT3=
EXTT4=
EXTT5=
EXTT6=
EXTT7=
EXTT8=
EXTT9=
EXTT10=
EXTT11=
EXTT12=
EXTT13=
EXTT14=
PLAYORDER=
